<svg width="255" height="255" viewBox="0 0 255 255" fill="none" xmlns="http://www.w3.org/2000/svg">
<path opacity="0.5" d="M127.5 0L127.525 127.375L176.293 9.70532L127.571 127.394L217.656 37.3439L127.606 127.429L245.295 78.7076L127.626 127.475L255 127.5L127.626 127.525L245.295 176.292L127.606 127.571L217.656 217.656L127.571 127.606L176.293 245.295L127.525 127.625L127.5 255L127.475 127.625L78.7077 245.295L127.429 127.606L37.3441 217.656L127.394 127.571L9.70544 176.292L127.375 127.525L0.00012207 127.5L127.375 127.475L9.70544 78.7076L127.394 127.429L37.3441 37.3439L127.429 127.394L78.7077 9.70532L127.475 127.375L127.5 0Z" stroke="#A1A6B4"/>
</svg>
