<svg width="161" height="291" viewBox="0 0 161 291" fill="none" xmlns="http://www.w3.org/2000/svg">
<path opacity="0.5" d="M103.036 0.5C46.4066 0.5 0.5 15.0154 0.5 32.9211C0.5 50.8268 46.4066 65.3423 103.036 65.3423C134.772 65.3423 160.5 59.1977 160.5 51.618C160.5 44.0383 134.772 37.8937 103.036 37.8937C46.4066 37.8937 0.5 52.4091 0.5 70.3148C0.5 88.2206 46.4066 102.736 103.036 102.736C134.772 102.736 160.5 96.5916 160.5 89.0117C160.5 81.4319 134.772 75.2874 103.036 75.2874C46.4066 75.2874 0.5 89.8919 0.5 107.907C0.5 125.923 46.4066 140.528 103.036 140.528C134.772 140.528 160.5 134.383 160.5 126.803C160.5 119.223 134.772 113.079 103.036 113.079C46.4066 113.079 0.5 127.594 0.5 145.5C0.5 163.406 46.4066 177.921 103.036 177.921C134.772 177.921 160.5 171.777 160.5 164.197C160.5 156.617 134.772 150.472 103.036 150.472C46.4066 150.472 0.5 164.988 0.5 182.894C0.5 200.8 46.4066 215.315 103.036 215.315C134.772 215.315 160.5 209.17 160.5 201.591C160.5 194.011 134.772 187.866 103.036 187.866C46.4066 187.866 0.5 202.382 0.5 220.287C0.5 238.193 46.4066 252.709 103.036 252.709C134.772 252.709 160.5 246.564 160.5 238.984C160.5 231.405 134.772 225.26 103.036 225.26C46.4066 225.26 0.5 239.864 0.5 257.88C0.5 275.895 46.4066 290.5 103.036 290.5" stroke="#A1A6B4" stroke-linecap="round"/>
</svg>
