<svg width="513" height="113" viewBox="0 0 513 113" fill="none" xmlns="http://www.w3.org/2000/svg">
<path opacity="0.5" d="M377.276 72.38C377.276 32.843 366.862 0.792212 354.015 0.792211C341.169 0.792211 330.754 32.843 330.754 72.38C330.754 94.5376 335.163 112.5 340.601 112.5C346.039 112.5 350.448 94.5376 350.448 72.38C350.448 32.843 340.034 0.792211 327.187 0.79221C314.34 0.79221 303.926 32.843 303.926 72.38C303.926 94.5376 308.334 112.5 313.773 112.5C319.211 112.5 323.619 94.5376 323.619 72.38C323.619 32.843 313.141 0.79221 300.216 0.792209C287.29 0.792209 276.812 32.843 276.812 72.38C276.812 94.5376 281.22 112.5 286.659 112.5C292.097 112.5 296.505 94.5376 296.505 72.38C296.505 32.843 286.091 0.792209 273.244 0.792208C260.398 0.792207 249.984 32.843 249.984 72.38C249.984 94.5376 254.392 112.5 259.83 112.5C265.268 112.5 269.677 94.5376 269.677 72.38C269.677 32.843 259.262 0.792207 246.415 0.792207C233.569 0.792206 223.155 32.843 223.155 72.38C223.155 94.5376 227.564 112.5 233.001 112.5C238.439 112.5 242.848 94.5376 242.848 72.38C242.848 32.843 232.433 0.792206 219.587 0.792206C206.741 0.792205 196.326 32.843 196.326 72.38C196.326 94.5376 200.735 112.5 206.173 112.5C211.611 112.5 216.019 94.5376 216.019 72.38C216.019 32.843 205.541 0.792205 192.616 0.792204C179.691 0.792204 169.212 32.843 169.212 72.38M512 72.38C512 32.843 501.586 0.792212 488.739 0.792211C475.892 0.792211 465.478 32.843 465.478 72.38C465.478 94.5376 469.887 112.5 475.325 112.5C480.763 112.5 485.171 94.5376 485.171 72.38C485.171 32.843 474.757 0.792211 461.911 0.79221C449.064 0.79221 438.649 32.843 438.649 72.38C438.649 94.5376 443.058 112.5 448.496 112.5C453.934 112.5 458.343 94.5376 458.343 72.38C458.343 32.843 447.865 0.79221 434.939 0.792209C422.014 0.792209 411.535 32.843 411.535 72.38C411.535 94.5376 415.944 112.5 421.382 112.5C426.821 112.5 431.228 94.5376 431.228 72.38C431.228 32.843 420.815 0.792209 407.968 0.792208C395.121 0.792207 384.707 32.843 384.707 72.38C384.707 94.5376 389.115 112.5 394.553 112.5C399.992 112.5 404.4 94.5376 404.4 72.38C404.4 32.843 393.986 0.792207 381.139 0.792207C368.292 0.792206 357.878 32.843 357.878 72.38C357.878 94.5376 362.287 112.5 367.725 112.5C373.163 112.5 377.572 94.5376 377.572 72.38C377.572 32.843 367.157 0.792206 354.311 0.792206C341.464 0.792205 331.05 32.843 331.05 72.38C331.05 94.5376 335.458 112.5 340.897 112.5C346.334 112.5 350.743 94.5376 350.743 72.38C350.743 32.843 340.265 0.792205 327.34 0.792204C314.414 0.792204 303.936 32.843 303.936 72.38M81.0642 72.0878C81.0642 32.5508 70.65 0.500008 57.8033 0.500007C44.9567 0.500006 34.5423 32.5508 34.5423 72.0878C34.5423 94.2454 38.9508 112.208 44.389 112.208C49.8271 112.208 54.2357 94.2454 54.2357 72.0878C54.2357 32.5508 43.8214 0.500006 30.9747 0.500006C18.128 0.500005 7.7134 32.5507 7.7134 72.0878C7.7134 94.2454 12.1221 112.208 17.5604 112.208C22.9986 112.208 27.4071 94.2454 27.4071 72.0878C27.4071 32.5508 16.9289 0.500005 4.00348 0.500005C-8.9219 0.500004 -19.4005 32.5507 -19.4005 72.0878C-19.4005 94.2454 -14.9918 112.208 -9.55346 112.208C-4.11512 112.208 0.292723 94.2454 0.292724 72.0878C0.292726 32.5507 -10.1211 0.500004 -22.9679 0.500004C-35.8146 0.500003 -46.2285 32.5507 -46.2285 72.0878C-46.2285 94.2454 -41.8206 112.208 -36.3823 112.208C-30.944 112.208 -26.5353 94.2454 -26.5353 72.0878C-26.5353 32.5507 -36.95 0.500003 -49.7967 0.500002C-62.6434 0.500002 -73.0573 32.5507 -73.0573 72.0878C-73.0573 94.2454 -68.6486 112.208 -63.2111 112.208C-57.7728 112.208 -53.3641 94.2454 -53.3641 72.0878C-53.3641 32.5507 -63.7788 0.500002 -76.6247 0.500001C-89.4714 0.500001 -99.8861 32.5507 -99.8861 72.0878C-99.8861 94.2454 -95.4774 112.208 -90.0391 112.208C-84.6016 112.208 -80.1929 94.2454 -80.1929 72.0878C-80.1929 32.5507 -90.6707 0.500001 -103.596 0.5C-116.521 0.499999 -127 32.5507 -127 72.0878M215.788 72.0878C215.788 32.5508 205.374 0.500008 192.527 0.500007C179.68 0.500006 169.266 32.5508 169.266 72.0878C169.266 94.2454 173.674 112.208 179.113 112.208C184.551 112.208 188.959 94.2454 188.959 72.0878C188.959 32.5508 178.545 0.500006 165.698 0.500006C152.852 0.500005 142.437 32.5507 142.437 72.0878C142.437 94.2454 146.846 112.208 152.284 112.208C157.722 112.208 162.131 94.2454 162.131 72.0878C162.131 32.5508 151.652 0.500005 138.727 0.500005C125.802 0.500004 115.323 32.5507 115.323 72.0878C115.323 94.2454 119.732 112.208 125.17 112.208C130.608 112.208 135.016 94.2454 135.016 72.0878C135.016 32.5507 124.602 0.500004 111.756 0.500004C98.909 0.500003 88.4951 32.5507 88.4951 72.0878C88.4951 94.2454 92.9029 112.208 98.3413 112.208C103.78 112.208 108.188 94.2454 108.188 72.0878C108.188 32.5507 97.7736 0.500003 84.9269 0.500002C72.0802 0.500002 61.6663 32.5507 61.6663 72.0878C61.6663 94.2454 66.075 112.208 71.5125 112.208C76.9508 112.208 81.3595 94.2454 81.3595 72.0878C81.3595 32.5507 70.9448 0.500002 58.0989 0.500001C45.2521 0.500001 34.8375 32.5507 34.8375 72.0878C34.8375 94.2454 39.2461 112.208 44.6845 112.208C50.122 112.208 54.5307 94.2454 54.5307 72.0878C54.5307 32.5507 44.0529 0.500001 31.1275 0.5C18.2022 0.499999 7.72359 32.5507 7.72359 72.0878" stroke="#A1A6B4" stroke-linecap="round"/>
</svg>
